<svg xmlns="http://www.w3.org/2000/svg" viewBox="0 9.470000267028809 94.04000091552734 46.31999969482422" data-asc="0.9052734375" width="94.04000091552734" height="46.31999969482422"><defs/><g><g fill="#ffffff"><g transform="translate(0, 0)"><path d="M0 45.26L0 9.47L12.33 9.47Q16.50 9.47 18.70 9.99Q21.78 10.69 23.95 12.55Q26.78 14.94 28.19 18.66Q29.59 22.39 29.59 27.17Q29.59 31.25 28.64 34.40Q27.69 37.55 26.20 39.61Q24.71 41.67 22.94 42.86Q21.17 44.04 18.66 44.65Q16.16 45.26 12.92 45.26L0 45.26M4.74 41.04L12.38 41.04Q15.92 41.04 17.93 40.38Q19.95 39.72 21.14 38.53Q22.83 36.84 23.77 34.00Q24.71 31.15 24.71 27.10Q24.71 21.48 22.86 18.47Q21.02 15.45 18.38 14.43Q16.48 13.70 12.26 13.70L4.74 13.70L4.74 41.04ZM35.57 14.53L35.57 9.47L39.97 9.47L39.97 14.53L35.57 14.53M35.57 45.26L35.57 19.34L39.97 19.34L39.97 45.26L35.57 45.26ZM46.46 55.25L45.97 51.12Q47.41 51.51 48.49 51.51Q49.95 51.51 50.83 51.03Q51.71 50.54 52.27 49.66Q52.69 49.00 53.61 46.39Q53.74 46.02 54.00 45.31L44.17 19.34L48.90 19.34L54.30 34.35Q55.35 37.21 56.18 40.36Q56.93 37.33 57.98 34.45L63.53 19.34L67.92 19.34L58.06 45.70Q56.47 49.98 55.59 51.59Q54.42 53.76 52.91 54.77Q51.39 55.79 49.29 55.79Q48.02 55.79 46.46 55.25ZM88.57 42.07Q86.13 44.14 83.87 45.00Q81.62 45.85 79.03 45.85Q74.76 45.85 72.46 43.76Q70.17 41.67 70.17 38.43Q70.17 36.52 71.03 34.95Q71.90 33.37 73.30 32.42Q74.71 31.47 76.46 30.98Q77.76 30.64 80.37 30.32Q85.69 29.69 88.21 28.81Q88.23 27.91 88.23 27.66Q88.23 24.98 86.99 23.88Q85.30 22.39 81.98 22.39Q78.88 22.39 77.40 23.47Q75.93 24.56 75.22 27.32L70.92 26.73Q71.51 23.97 72.85 22.28Q74.19 20.58 76.73 19.67Q79.27 18.75 82.62 18.75Q85.94 18.75 88.01 19.53Q90.09 20.31 91.06 21.50Q92.04 22.68 92.43 24.49Q92.65 25.61 92.65 28.54L92.65 34.40Q92.65 40.53 92.93 42.15Q93.21 43.77 94.04 45.26L89.45 45.26Q88.77 43.90 88.57 42.07M88.21 32.25Q85.82 33.23 81.03 33.91Q78.32 34.30 77.20 34.79Q76.07 35.28 75.46 36.22Q74.85 37.16 74.85 38.31Q74.85 40.06 76.18 41.24Q77.51 42.41 80.08 42.41Q82.62 42.41 84.59 41.30Q86.57 40.19 87.50 38.26Q88.21 36.77 88.21 33.86L88.21 32.25Z"/></g></g></g></svg>